<svg width="27" height="27" viewBox="0 0 27 27" fill="none" xmlns="http://www.w3.org/2000/svg">
<path fill-rule="evenodd" clip-rule="evenodd" d="M27 3.68182C27 1.64841 25.3517 0 23.3182 0H3.68182C1.64841 0 0 1.64841 0 3.68182V15.9545C0 17.988 1.64841 19.6364 3.68182 19.6364H4.90909C5.58689 19.6364 6.13636 19.0869 6.13636 18.4091C6.13636 17.7313 5.58689 17.1818 4.90909 17.1818H3.68182C3.00402 17.1818 2.45455 16.6324 2.45455 15.9545V8.59091H24.5455V15.9545C24.5455 16.6324 23.996 17.1818 23.3182 17.1818H22.0909C21.4131 17.1818 20.8636 17.7313 20.8636 18.4091C20.8636 19.0869 21.4131 19.6364 22.0909 19.6364H23.3182C25.3517 19.6364 27 17.988 27 15.9545V3.68182ZM24.5455 6.13636V3.68182C24.5455 3.00402 23.996 2.45455 23.3182 2.45455H3.68182C3.00402 2.45455 2.45455 3.00401 2.45455 3.68182V6.13636H24.5455Z" fill="white" fill-opacity="0.7"/>
<path d="M14.7273 25.7727C14.7273 26.4506 14.1778 27 13.5 27C12.8222 27 12.2727 26.4506 12.2727 25.7727V18.9085L10.686 20.495C10.2067 20.9745 9.4297 20.9745 8.95036 20.495C8.47111 20.016 8.47111 19.2387 8.95036 18.7596L12.6316 15.086C13.111 14.6075 13.8873 14.608 14.3663 15.0869L18.047 18.7677C18.5264 19.2471 18.5264 20.0241 18.047 20.5034C17.5678 20.9826 16.7907 20.9826 16.3114 20.5034L14.7273 18.9193V25.7727Z" fill="white" fill-opacity="0.7"/>
</svg>
