<svg width="18" height="20" viewBox="0 0 18 20" fill="none" xmlns="http://www.w3.org/2000/svg">
<path fill-rule="evenodd" clip-rule="evenodd" d="M4 0C3.73478 0 3.48043 0.110902 3.29289 0.308309C3.10536 0.505715 3 0.773456 3 1.05263V2.10632C2.039 2.12105 1.66 2.24211 1.279 2.45684C0.876384 2.6812 0.547137 3.02777 0.334 3.45158C0.116 3.88 0 4.30526 0 5.47895V16.6263C0 17.7989 0.116 18.2253 0.334 18.6537C0.552 19.0821 0.872 19.4189 1.279 19.6484C1.686 19.8779 2.09 20 3.205 20H14.795C15.909 20 16.314 19.8779 16.721 19.6484C17.128 19.4189 17.448 19.0821 17.666 18.6537C17.884 18.2253 18 17.8 18 16.6263V5.47895C18 4.30526 17.884 3.88 17.666 3.45158C17.4529 3.02777 17.1236 2.6812 16.721 2.45684C16.34 2.24211 15.961 2.12105 15 2.10526V1.05263C15 0.773456 14.8946 0.505715 14.7071 0.308309C14.5196 0.110902 14.2652 0 14 0C13.7348 0 13.4804 0.110902 13.2929 0.308309C13.1054 0.505715 13 0.773456 13 1.05263V2.10526H5V1.05263C5 0.773456 4.89464 0.505715 4.70711 0.308309C4.51957 0.110902 4.26522 0 4 0ZM2 7.36842V16.6263C2 17.0758 2.019 17.3568 2.049 17.52C2.061 17.5832 2.066 17.5979 2.098 17.6611C2.12452 17.718 2.16808 17.7643 2.222 17.7926C2.282 17.8253 2.295 17.8305 2.356 17.8432C2.511 17.8747 2.778 17.8947 3.205 17.8947H14.795C15.222 17.8947 15.489 17.8747 15.644 17.8432C15.6915 17.8357 15.7371 17.8182 15.778 17.7916C15.8321 17.7637 15.876 17.7178 15.903 17.6611C15.9279 17.618 15.9443 17.57 15.951 17.52C15.981 17.3568 16 17.0758 16 16.6263L16.004 7.36842H2ZM10.75 11.5789C10.5511 11.5789 10.3603 11.6621 10.2197 11.8102C10.079 11.9582 10 12.159 10 12.3684V15C10 15.4358 10.336 15.7895 10.75 15.7895H13.25C13.4489 15.7895 13.6397 15.7063 13.7803 15.5582C13.921 15.4102 14 15.2094 14 15V12.3684C14 12.159 13.921 11.9582 13.7803 11.8102C13.6397 11.6621 13.4489 11.5789 13.25 11.5789H10.75Z" fill="#F9FDFF" fill-opacity="0.86"/>
</svg>
