<?xml version="1.0" encoding="UTF-8"?>
<svg id="Layer_2" data-name="Layer 2" xmlns="http://www.w3.org/2000/svg" viewBox="0 0 178.75 154.64">
  <defs>
    <style>
      .cls-1 {
        fill: #fff;
        fill-rule: evenodd;
      }
    </style>
  </defs>
  <g id="Layer_2-2" data-name="Layer 2">
    <g id="Layer_1-2" data-name="Layer 1-2">
      <path class="cls-1" d="M140.77,108.55c-.18-.87-.36-1.78-.64-2.6-.23-.87-.55-1.69-.87-2.46-.64-1.55-1.37-3.01-2.28-4.37-3.05-4.69-7.61-8.38-12.98-10.29-2.73-1-5.69-1.55-8.79-1.55-2.5,0-4.92.36-7.2,1l-9.43-9.43-5.15-5.15,43.22-43.22,2.78-2.78c5.37-5.37,14.21-2.37,14.21,5.37v79.47c0,18.95-9.34,32.24-28.05,37.3,2.46,1.18,6.01,2.6,8.47,3.28,23.45,6.65,44.68-9.29,44.68-36.52V33.13c0-30.06-36.07-44.08-56.97-23.14l-8.02,8.02h0l-37.98,38.03-15.17-15.17-3.6-3.6C36.07,16.28,0,30.31,0,60.36v37.89c0,26.32,32.47,36.48,50.69,18.22l9.88-9.88h0l15.12-15.17,14.57,14.57c-.68,2.28-1,4.69-1,7.2,0,10.7,6.47,19.86,15.71,23.86,3.14,1.37,6.6,2.09,10.25,2.09,11.93,0,22-8.06,25.05-19.04.36-1.32.64-2.64.77-4.01.09-.96.18-1.91.18-2.87,0-1.59-.14-3.19-.41-4.69h-.05ZM117.72,104.9c3.6,1.05,6.24,4.42,6.24,8.33,0,4.83-3.92,8.7-8.7,8.7-1.41,0-2.73-.32-3.92-.91-2.82-1.41-4.78-4.37-4.78-7.79,0-4.83,3.92-8.7,8.7-8.7.87,0,1.69.14,2.46.36h0ZM53.24,78.53l-10.25,10.25-.09.09-10.7,10.7c-4.05,4.05-7.1.82-7.1-1.87v-37.34c0-7.74,8.79-10.79,14.16-5.37l2.78,2.78,1.37,1.37,14.35,14.35.23.23-4.78,4.78.05.05Z"/>
    </g>
  </g>
</svg>