<svg width="36" height="36" viewBox="0 0 36 36" fill="none" xmlns="http://www.w3.org/2000/svg">
<circle cx="18" cy="18" r="18" fill="white"/>
<path fill-rule="evenodd" clip-rule="evenodd" d="M23.7514 20.9342C23.7312 20.8386 23.7111 20.7385 23.6798 20.6484C23.654 20.5527 23.6182 20.4626 23.5824 20.3779C23.5108 20.2075 23.4291 20.047 23.3273 19.8975C22.986 19.3818 22.4758 18.9761 21.8749 18.7661C21.5694 18.6562 21.2382 18.5957 20.8913 18.5957C20.6116 18.5957 20.3408 18.6353 20.0857 18.7057L19.0305 17.6689L18.4543 17.1027L23.2904 12.351L23.6014 12.0453C24.2023 11.4549 25.1915 11.7848 25.1915 12.6357V21.3729C25.1915 23.4563 24.1464 24.9175 22.0528 25.4738C22.3281 25.6035 22.7253 25.7596 23.0006 25.8344C25.6245 26.5655 28 24.813 28 21.8193V12.6423C28 9.33744 23.964 7.79604 21.6254 10.0982L20.728 10.98L16.4782 15.1611L14.7808 13.4933L14.378 13.0975C12.036 10.7898 8 12.3323 8 15.6361V19.8018C8 22.6955 11.6332 23.8125 13.6719 21.805L14.7774 20.7187L16.4693 19.0509L18.0996 20.6528C18.0235 20.9034 17.9877 21.1684 17.9877 21.4444C17.9877 22.6208 18.7116 23.6278 19.7456 24.0676C20.0969 24.2182 20.4841 24.2974 20.8925 24.2974C22.2274 24.2974 23.3541 23.4112 23.6954 22.2041C23.7357 22.0589 23.767 21.9138 23.7816 21.7632C23.7917 21.6576 23.8017 21.5532 23.8017 21.4477C23.8017 21.2728 23.7861 21.0969 23.7558 20.932H23.7503L23.7514 20.9342ZM21.1722 20.5329C21.575 20.6484 21.8704 21.0189 21.8704 21.4488C21.8704 21.9798 21.4318 22.4053 20.8969 22.4053C20.7392 22.4053 20.5915 22.3701 20.4583 22.3052C20.1428 22.1502 19.9235 21.8248 19.9235 21.4488C19.9235 20.9177 20.3621 20.4923 20.8969 20.4923C20.9943 20.4923 21.086 20.5076 21.1722 20.5318V20.5329ZM13.9573 17.6337L12.8103 18.7607L12.8003 18.7705L11.603 19.9469C11.1498 20.3922 10.8085 20.0371 10.8085 19.7413V15.6361C10.8085 14.7851 11.7921 14.4498 12.393 15.0457L12.704 15.3513L12.8573 15.5019L14.463 17.0796L14.4888 17.1049L13.9539 17.6304L13.9595 17.6359L13.9573 17.6337Z" fill="black"/>
</svg>
