<svg width="18" height="18" viewBox="0 0 18 18" fill="none" xmlns="http://www.w3.org/2000/svg">
<path fill-rule="evenodd" clip-rule="evenodd" d="M14.9063 16.2H3.09436C2.4586 16.2 1.98914 15.5727 2.22892 14.9958C3.34149 12.3282 5.95524 10.8 8.99986 10.8C12.0454 10.8 14.6592 12.3282 15.7717 14.9958C16.0115 15.5727 15.542 16.2 14.9063 16.2ZM5.325 5.39999C5.325 3.41459 6.97409 1.79999 8.99986 1.79999C11.0266 1.79999 12.6747 3.41459 12.6747 5.39999C12.6747 7.38539 11.0266 8.99999 8.99986 8.99999C6.97409 8.99999 5.325 7.38539 5.325 5.39999ZM17.9601 15.8724C17.2922 12.8493 15.203 10.6182 12.4533 9.60567C13.9104 8.45637 14.7602 6.59784 14.4479 4.56294C14.0859 2.20224 12.0812 0.313179 9.66134 0.0377792C6.32089 -0.342921 3.48756 2.20409 3.48756 5.39999C3.48756 7.10099 4.29236 8.61657 5.54733 9.60567C2.79669 10.6182 0.708447 12.8493 0.0396216 15.8724C-0.20292 16.9713 0.701098 18 1.84858 18H16.1512C17.2995 18 18.2036 16.9713 17.9601 15.8724Z" fill="white" fill-opacity="0.7"/>
</svg>
