<svg width="18" height="12" viewBox="0 0 18 12" fill="none" xmlns="http://www.w3.org/2000/svg">
<path d="M16.9533 6.95162C17.3756 6.95162 17.7567 7.20246 17.9193 7.58765C18.0819 7.97285 17.9943 8.41714 17.6973 8.71384L14.7148 11.6932C14.3083 12.0993 13.6454 12.1027 13.2346 11.7008C12.8238 11.299 12.8203 10.6437 13.2268 10.2377L14.4454 9.02054H1.04668C0.468717 9.02054 0.000187566 8.5574 0.000187566 7.98608C0.000231664 7.4148 0.468744 6.95162 1.04668 6.95162H16.9533ZM3.28518 0.306831C3.69172 -0.0992574 4.35458 -0.102699 4.7654 0.299154C5.17621 0.701012 5.17969 1.35626 4.77316 1.76235L3.55457 2.97946H16.9533C17.5313 2.97946 17.9998 3.4426 17.9998 4.01392C17.9998 4.5852 17.5313 5.04838 16.9533 5.04838H1.04668C0.624429 5.04838 0.243347 4.79754 0.0807182 4.41235C-0.0818887 4.02715 0.0057066 3.58286 0.302689 3.28616L3.28518 0.306831Z" fill="white" fill-opacity="0.7"/>
</svg>
