<svg width="20" height="16" viewBox="0 0 20 16" fill="none" xmlns="http://www.w3.org/2000/svg">
<path d="M8.13953 3.65714C8.52485 3.65714 8.83721 3.96415 8.83721 4.34286C8.83721 4.72157 8.52485 5.02857 8.13953 5.02857H4.4186C4.03329 5.02857 3.72093 4.72157 3.72093 4.34286C3.72093 3.96415 4.03329 3.65714 4.4186 3.65714H8.13953Z" fill="white"/>
<path d="M18.6043 6.17286C18.6042 6.16633 18.6043 6.16216 18.6043 6.16L18.5985 6.12929C18.5764 6.05332 18.4923 5.95369 18.3238 5.94357C18.3238 5.94357 18.3186 5.9434 18.3009 5.94321C18.282 5.94302 18.2571 5.94286 18.2169 5.94286H15.7961C14.472 5.94286 13.4884 6.91082 13.4884 8C13.4884 9.08919 14.472 10.0571 15.7961 10.0571H18.2169C18.3001 10.0571 18.3162 10.0568 18.3234 10.0564C18.5162 10.0449 18.5988 9.91645 18.6043 9.84C18.6043 9.83783 18.6042 9.83368 18.6043 9.82714C18.6045 9.81094 18.6046 9.78935 18.6046 9.7525V6.2475C18.6046 6.21066 18.6045 6.18907 18.6043 6.17286ZM20 9.7525C20 9.81151 20.0003 9.8765 19.996 9.93643C19.9356 10.7757 19.2189 11.3768 18.4084 11.4254H18.4077C18.349 11.4288 18.2845 11.4286 18.2169 11.4286H15.7961C13.8006 11.4286 12.093 9.94058 12.093 8C12.093 6.05943 13.8006 4.57143 15.7961 4.57143H18.2169C18.2843 4.57143 18.3492 4.57111 18.4084 4.57464C19.2191 4.62313 19.9356 5.22406 19.996 6.06321C20.0003 6.12314 20 6.18855 20 6.2475V9.7525Z" fill="white"/>
<path d="M6.13301e-07 8C6.13301e-07 6.29539 -0.00148958 4.94792 0.142442 3.89571C0.289075 2.8238 0.598191 1.95636 1.29433 1.27214C1.99048 0.587936 2.87305 0.284119 3.96366 0.140001C5.03422 -0.00146399 6.40519 6.02722e-07 8.13953 6.02722e-07H10.9302C12.6646 6.02722e-07 14.0355 -0.00146388 15.1061 0.140001C16.1967 0.284118 17.0793 0.587918 17.7754 1.27214C18.7325 2.21279 18.9641 3.50845 19.0367 5.22857L17.6424 5.28572C17.5705 3.58229 17.3354 2.77893 16.7889 2.24179C16.3952 1.85487 15.856 1.62296 14.9201 1.49929C13.9641 1.37297 12.704 1.37143 10.9302 1.37143H8.13953C6.36579 1.37143 5.10567 1.37297 4.14971 1.49929C3.21381 1.62296 2.67457 1.85485 2.28089 2.24179C1.8872 2.62872 1.65126 3.15872 1.52544 4.07857C1.39692 5.01814 1.39535 6.25666 1.39535 8C1.39535 9.74332 1.39692 10.9819 1.52544 11.9214C1.65127 12.8413 1.88722 13.3713 2.28089 13.7582C2.67457 14.1452 3.21382 14.377 4.14971 14.5007C5.10567 14.627 6.36579 14.6286 8.13953 14.6286H10.9302C12.704 14.6286 13.9641 14.627 14.9201 14.5007C15.856 14.377 16.3952 14.1451 16.7889 13.7582L16.8877 13.6543C17.3641 13.1173 17.575 12.3113 17.6424 10.7143L19.0367 10.7714C18.9641 12.4915 18.7325 13.7873 17.7754 14.7279C17.0793 15.4121 16.1967 15.7159 15.1061 15.86C14.0355 16.0015 12.6646 16 10.9302 16H8.13953C6.40519 16 5.03422 16.0015 3.96366 15.86C2.87306 15.7159 1.99048 15.4121 1.29433 14.7279C0.598172 14.0437 0.289074 13.1762 0.142442 12.1043C-0.00148948 11.0521 6.13301e-07 9.70459 6.13301e-07 8Z" fill="white"/>
<path d="M15.5816 7.08571C16.0953 7.08571 16.5118 7.49505 16.5118 8C16.5118 8.50495 16.0953 8.91429 15.5816 8.91429H15.5732C15.0595 8.91429 14.643 8.50495 14.643 8C14.643 7.49505 15.0595 7.08571 15.5732 7.08571H15.5816Z" fill="white"/>
</svg>
